HIERARCHY
ROOT Root
{
	OFFSET 0.00000 0.00000 0.00000
	CHANNELS 6 Xposition Yposition Zposition Zrotation Xrotation Yrotation
	JOINT Hip
	{
		OFFSET 0 0 0	
		CHANNELS 3 Zrotation Xrotation Yrotation
		JOINT Tummy
		{
			OFFSET 0 0.04 0	
			CHANNELS 3 Zrotation Xrotation Yrotation
			JOINT ChestBottom
			{
				OFFSET 0 0.194 0	
				CHANNELS 3 Zrotation Xrotation Yrotation
				JOINT ChestTop
				{
					OFFSET 0 0.166 0	
					CHANNELS 3 Zrotation Xrotation Yrotation
					JOINT LeftCollar
					{
						OFFSET 0 0.1 0	
						CHANNELS 3 Zrotation Xrotation Yrotation
						JOINT LeftUpperArm
						{
							OFFSET 0.156 -0.02 0.03	
							CHANNELS 3 Zrotation Xrotation Yrotation
							JOINT LeftForeArm
							{
								OFFSET 0.035 -0.27 -0.01	
								CHANNELS 3 Zrotation Xrotation Yrotation
								JOINT LeftHand
								{
									OFFSET 0.01 -0.27 0.01	
									CHANNELS 3 Zrotation Xrotation Yrotation
									End Site
									{
										OFFSET 0 -0.15 0
									}
								}
							}
						}
					}
					JOINT RightCollar
					{
						OFFSET 0 0.1 0	
						CHANNELS 3 Zrotation Xrotation Yrotation
						JOINT RightUpperArm
						{
							OFFSET -0.156 -0.02 0.03	
							CHANNELS 3 Zrotation Xrotation Yrotation
							JOINT RightForeArm
							{
								OFFSET -0.035 -0.27 -0.01	
								CHANNELS 3 Zrotation Xrotation Yrotation
								JOINT RightHand
								{
									OFFSET -0.01 -0.27 0.01	
									CHANNELS 3 Zrotation Xrotation Yrotation
									End Site
									{
										OFFSET 0 -0.15 0
									}
								}
							}
						}
					}
					JOINT Neck
					{
						OFFSET 0 0.1 0	
						CHANNELS 3 Zrotation Xrotation Yrotation
						JOINT Head
						{
							OFFSET 0 0.127 0.03	
							CHANNELS 3 Zrotation Xrotation Yrotation
							End Site
							{
								OFFSET 0 0.127 0.03
							}
						}
					}
				}
			}
		}
	}
	JOINT LeftHip
	{
		OFFSET 0 0 0	
		CHANNELS 3 Zrotation Xrotation Yrotation
		JOINT LeftThigh
		{
			OFFSET 0.088 -0.06 0	
			CHANNELS 3 Zrotation Xrotation Yrotation
			JOINT LeftLowerLeg
			{
				OFFSET 0 -0.39 0.02	
				CHANNELS 3 Zrotation Xrotation Yrotation
				JOINT LeftFootTop
				{
					OFFSET 0 -0.43 -0.02	
					CHANNELS 3 Zrotation Xrotation Yrotation
					JOINT LeftFootFront
					{
						OFFSET 0 -0.07 0.085	
						CHANNELS 3 Zrotation Xrotation Yrotation
						End Site
						{
							OFFSET 0 -0.005 0.09
						}
					}
				}
				JOINT LeftHeel
				{
					OFFSET 0 -0.43 -0.02	
					CHANNELS 3 Zrotation Xrotation Yrotation
					End Site
					{
						OFFSET 0 -0.075 -0.05
					}
				}
			}
		}
	}
	JOINT RightHip
	{
		OFFSET 0 0 0	
		CHANNELS 3 Zrotation Xrotation Yrotation
		JOINT RightThigh
		{
			OFFSET -0.088 -0.06 0	
			CHANNELS 3 Zrotation Xrotation Yrotation
			JOINT RightLowerLeg
			{
				OFFSET 0 -0.39 0.02	
				CHANNELS 3 Zrotation Xrotation Yrotation
				JOINT RightFootTop
				{
					OFFSET 0 -0.43 -0.02	
					CHANNELS 3 Zrotation Xrotation Yrotation
					JOINT RightFootFront
					{
						OFFSET 0 -0.07 0.085	
						CHANNELS 3 Zrotation Xrotation Yrotation
						End Site
						{
							OFFSET 0 -0.005 0.09
						}
					}
				}
				JOINT RightHeel
				{
					OFFSET 0 -0.43 -0.02	
					CHANNELS 3 Zrotation Xrotation Yrotation
					End Site
					{
						OFFSET 0 -0.075 -0.05
					}
				}
			}
		}
	}
}
MOTION
Frames: 25
Frame Time: 0.05
0 0.95684 0 -0 0 -0 -0.9764 -2.8702 1.2144 0.71518 4.0124 -1.5014 0.71518 4.0124 -1.5014 0.59351 3.3717 -1.2575 -0 0 -0 -0.51387 -6.4483 -2.0388 4.014 -2.9973 1.6732 -2.4295 1.2935 5.6695 -0 0 -0 0.041795 -8.0092 -1.2825 0.32692 -0.8916 -5.3722 1.4448 -0.6547 -2.554 0.77397 -7.7858 -1.1276 1.1916 -4.4294 -2.4322 -0.9764 -2.8702 1.2144 2.6474 3.0717 -0.1838 -0 0 -0 -0 0 -0 -0 0 -0 -0 0 -0 -0.9764 -2.8702 1.2144 1.998 0.78561 -2.7299 -0 0 -0 -0 0 -0 -0 0 -0 -0 0 -0 
0 0.95684 0 -0 0 -0 -0.98104 -2.8488 1.1871 0.70856 4.0341 -1.5024 0.70856 4.0341 -1.5024 0.5879 3.39 -1.2583 -0 0 -0 -0.49913 -6.5055 -1.9972 4.0378 -3.0264 1.557 -2.4423 1.2807 5.6696 -0 0 -0 0.086902 -8.073 -1.3266 0.29076 -0.88363 -5.2441 1.439 -0.66791 -2.5917 0.80987 -7.8113 -1.1171 1.2209 -4.4375 -2.4249 -0.98104 -2.8488 1.1871 2.6424 3.0506 -0.15818 -0 0 -0 -0 0 -0 -0 0 -0 -0 0 -0 -0.98104 -2.8488 1.1871 1.9982 0.74027 -2.7418 -0 0 -0 -0 0 -0 -0 0 -0 -0 0 -0 
0 0.95684 0 -0 0 -0 -0.97146 -2.8359 1.1482 0.69814 4.0569 -1.4875 0.69814 4.0569 -1.4875 0.57918 3.409 -1.2458 -0 0 -0 -0.49206 -6.5574 -1.9898 4.0602 -3.0572 1.4374 -2.453 1.2692 5.6674 -0 0 -0 0.12005 -8.1277 -1.3613 0.25752 -0.87939 -5.1582 1.4145 -0.66989 -2.6176 0.84276 -7.8345 -1.131 1.2461 -4.4422 -2.4284 -0.97146 -2.8359 1.1482 2.6227 3.0378 -0.12144 -0 0 -0 -0 0 -0 -0 0 -0 -0 0 -0 -0.97146 -2.8359 1.1482 1.983 0.69711 -2.7352 -0 0 -0 -0 0 -0 -0 0 -0 -0 0 -0 
0 0.95684 0 -0 0 -0 -0.96409 -2.8061 1.0857 0.69184 4.06 -1.4632 0.69184 4.06 -1.4632 0.574 3.4116 -1.2255 -0 0 -0 -0.50003 -6.5703 -1.9871 4.0492 -3.0968 1.3524 -2.4293 1.2672 5.6264 -0 0 -0 0.13485 -8.1532 -1.4071 0.22613 -0.86447 -5.0488 1.4176 -0.67125 -2.6912 0.87471 -7.8217 -1.1555 1.2757 -4.4273 -2.4345 -0.96409 -2.8061 1.0857 2.6072 2.9935 -0.080863 -0 0 -0 -0 0 -0 -0 0 -0 -0 0 -0 -0.96409 -2.8061 1.0857 1.9687 0.64541 -2.7276 -0 0 -0 -0 0 -0 -0 0 -0 -0 0 -0 
0 0.95684 0 -0 0 -0 -0.96417 -2.7873 1.0262 0.68375 4.065 -1.4428 0.68375 4.065 -1.4428 0.56729 3.4158 -1.2083 -0 0 -0 -0.49469 -6.5748 -2.0333 4.0428 -3.1136 1.3127 -2.4219 1.2309 5.5346 -0 0 -0 0.16359 -8.1694 -1.4862 0.18589 -0.85337 -4.9179 1.4434 -0.6834 -2.7803 0.91018 -7.804 -1.1784 1.3069 -4.4059 -2.4424 -0.96417 -2.7873 1.0262 2.5975 2.9671 -0.026939 -0 0 -0 -0 0 -0 -0 0 -0 -0 0 -0 -0.96417 -2.7873 1.0262 1.9716 0.61017 -2.7204 -0 0 -0 -0 0 -0 -0 0 -0 -0 0 -0 
0 0.95684 0 -0 0 -0 -0.97558 -2.7652 0.97565 0.69601 4.088 -1.3717 0.69601 4.088 -1.3717 0.57789 3.4351 -1.1486 -0 0 -0 -0.5449 -6.6387 -2.2058 4.0573 -3.1281 1.2122 -2.4139 1.2111 5.5331 -0 0 -0 0.13786 -8.2374 -1.737 0.16319 -0.83436 -4.8228 1.4794 -0.72495 -2.8319 0.90508 -7.8157 -1.3033 1.3204 -4.3975 -2.5075 -0.97558 -2.7652 0.97565 2.5989 2.9463 0.0013015 -0 0 -0 -0 0 -0 -0 0 -0 -0 0 -0 -0.97558 -2.7652 0.97565 1.9803 0.55829 -2.6973 -0 0 -0 -0 0 -0 -0 0 -0 -0 0 -0 
0 0.95684 0 -0 0 -0 -0.97756 -2.7366 0.93833 0.69747 4.0738 -1.3725 0.69747 4.0738 -1.3725 0.57914 3.4232 -1.1492 -0 0 -0 -0.56111 -6.5904 -2.183 4.0825 -3.171 1.1001 -2.423 1.1929 5.5503 -0 0 -0 0.13604 -8.2173 -1.7811 0.16206 -0.82775 -4.7686 1.4961 -0.75375 -2.8285 0.91232 -7.7611 -1.2922 1.3299 -4.3549 -2.4971 -0.97756 -2.7366 0.93833 2.6187 2.9163 0.035088 -0 0 -0 -0 0 -0 -0 0 -0 -0 0 -0 -0.97756 -2.7366 0.93833 1.9822 0.50209 -2.6716 -0 0 -0 -0 0 -0 -0 0 -0 -0 0 -0 
0 0.95684 0 -0 0 -0 -0.97308 -2.7009 0.9103 0.68799 4.1097 -1.3673 0.68799 4.1097 -1.3673 0.57114 3.4533 -1.1449 -0 0 -0 -0.53734 -6.7049 -2.2541 4.107 -3.1746 1.0458 -2.4239 1.1895 5.5722 -0 0 -0 0.18323 -8.3501 -1.8505 0.15252 -0.84864 -4.7003 1.497 -0.73658 -2.8243 0.94719 -7.8077 -1.2756 1.3561 -4.3721 -2.4789 -0.97308 -2.7009 0.9103 2.6071 2.8914 0.062584 -0 0 -0 -0 0 -0 -0 0 -0 -0 0 -0 -0.97308 -2.7009 0.9103 1.9751 0.44186 -2.6552 -0 0 -0 -0 0 -0 -0 0 -0 -0 0 -0 
0 0.95684 0 -0 0 -0 -0.96063 -2.6586 0.88868 0.67834 4.0889 -1.3486 0.67834 4.0889 -1.3486 0.56316 3.4358 -1.1293 -0 0 -0 -0.52585 -6.6864 -2.2883 4.1254 -3.159 0.95812 -2.4141 1.1845 5.547 -0 0 -0 0.21986 -8.3398 -1.9202 0.13163 -0.82986 -4.6416 1.5096 -0.73928 -2.8404 0.95491 -7.7506 -1.2708 1.3591 -4.3325 -2.4585 -0.96063 -2.6586 0.88868 2.6083 2.8423 0.10389 -0 0 -0 -0 0 -0 -0 0 -0 -0 0 -0 -0.96063 -2.6586 0.88868 1.9565 0.37863 -2.6402 -0 0 -0 -0 0 -0 -0 0 -0 -0 0 -0 
0 0.95684 0 -0 0 -0 -0.94988 -2.6228 0.89207 0.6813 4.0758 -1.3425 0.6813 4.0758 -1.3425 0.56569 3.4247 -1.1241 -0 0 -0 -0.53482 -6.6948 -2.2982 4.1436 -3.1552 0.89755 -2.4083 1.1739 5.4987 -0 0 -0 0.21082 -8.3394 -1.9086 0.13171 -0.80959 -4.658 1.5015 -0.75347 -2.8112 0.95225 -7.7209 -1.244 1.3603 -4.3137 -2.4262 -0.94988 -2.6228 0.89207 2.599 2.8142 0.085499 -0 0 -0 -0 0 -0 -0 0 -0 -0 0 -0 -0.94988 -2.6228 0.89207 1.9446 0.31181 -2.6412 -0 0 -0 -0 0 -0 -0 0 -0 -0 0 -0 
0 0.95684 0 -0 0 -0 -0.94123 -2.605 0.90876 0.67994 4.055 -1.333 0.67994 4.055 -1.333 0.56463 3.4073 -1.1162 -0 0 -0 -0.53769 -6.6672 -2.3078 4.1255 -3.1696 0.8813 -2.4151 1.1765 5.4648 -0 0 -0 0.20031 -8.3175 -1.9249 0.13587 -0.76523 -4.6274 1.4946 -0.78928 -2.8036 0.96335 -7.6531 -1.2366 1.3728 -4.2635 -2.4112 -0.94123 -2.605 0.90876 2.5957 2.7968 0.098954 -0 0 -0 -0 0 -0 -0 0 -0 -0 0 -0 -0.94123 -2.605 0.90876 1.9331 0.2742 -2.6528 -0 0 -0 -0 0 -0 -0 0 -0 -0 0 -0 
0 0.95684 0 -0 0 -0 -0.92861 -2.6008 0.93451 0.66955 4.0315 -1.3372 0.66955 4.0315 -1.3372 0.55593 3.3876 -1.1197 -0 0 -0 -0.5136 -6.6134 -2.2906 4.1124 -3.1929 0.88984 -2.412 1.1619 5.4429 -0 0 -0 0.2072 -8.2374 -1.8477 0.12919 -0.79069 -4.6628 1.5039 -0.80451 -2.8188 0.99011 -7.5853 -1.2172 1.3916 -4.216 -2.3965 -0.92861 -2.6008 0.93451 2.5933 2.7843 0.088743 -0 0 -0 -0 0 -0 -0 0 -0 -0 0 -0 -0.92861 -2.6008 0.93451 1.9189 0.2516 -2.6682 -0 0 -0 -0 0 -0 -0 0 -0 -0 0 -0 
0 0.95684 0 -0 0 -0 -0.9196 -2.6101 0.97275 0.67031 4.06 -1.3468 0.67031 4.06 -1.3468 0.55647 3.4115 -1.1278 -0 0 -0 -0.49028 -6.675 -2.3387 4.068 -3.2099 1.0015 -2.4012 1.1578 5.4242 -0 0 -0 0.19314 -8.3113 -1.7777 0.13626 -0.79122 -4.6818 1.5224 -0.80812 -2.8918 0.99728 -7.597 -1.1915 1.398 -4.204 -2.3797 -0.9196 -2.6101 0.97275 2.5976 2.7802 0.1063 -0 0 -0 -0 0 -0 -0 0 -0 -0 0 -0 -0.9196 -2.6101 0.97275 1.91 0.23492 -2.6964 -0 0 -0 -0 0 -0 -0 0 -0 -0 0 -0 
0 0.95684 0 -0 0 -0 -0.91945 -2.6154 1.0181 0.67427 4.0653 -1.3661 0.67427 4.0653 -1.3661 0.5597 3.4159 -1.1439 -0 0 -0 -0.48433 -6.6916 -2.2987 4.0435 -3.2016 1.0899 -2.3956 1.1607 5.4012 -0 0 -0 0.17671 -8.3198 -1.7339 0.14346 -0.77943 -4.6878 1.5444 -0.84797 -2.9261 0.99926 -7.5323 -1.1463 1.4024 -4.1352 -2.3507 -0.91945 -2.6154 1.0181 2.6125 2.7787 0.10441 -0 0 -0 -0 0 -0 -0 0 -0 -0 0 -0 -0.91945 -2.6154 1.0181 1.9159 0.22574 -2.7333 -0 0 -0 -0 0 -0 -0 0 -0 -0 0 -0 
0 0.95684 0 -0 0 -0 -0.92185 -2.6208 1.069 0.67323 4.0765 -1.3814 0.67323 4.0765 -1.3814 0.55873 3.4254 -1.1568 -0 0 -0 -0.45638 -6.7303 -2.2901 3.9947 -3.1914 1.2221 -2.3762 1.1785 5.3525 -0 0 -0 0.16761 -8.3517 -1.7134 0.15911 -0.78739 -4.7325 1.5657 -0.85746 -2.9195 1.0158 -7.4881 -1.112 1.4171 -4.0821 -2.3304 -0.92185 -2.6208 1.069 2.6258 2.7719 0.10089 -0 0 -0 -0 0 -0 -0 0 -0 -0 0 -0 -0.92185 -2.6208 1.069 1.9135 0.21491 -2.7765 -0 0 -0 -0 0 -0 -0 0 -0 -0 0 -0 
0 0.95684 0 -0 0 -0 -0.9257 -2.62 1.1229 0.67598 4.0726 -1.3826 0.67598 4.0726 -1.3826 0.56104 3.4221 -1.1578 -0 0 -0 -0.4585 -6.7423 -2.3552 3.9455 -3.2011 1.3829 -2.3403 1.1853 5.2567 -0 0 -0 0.1417 -8.3737 -1.7424 0.19911 -0.77433 -4.7826 1.5631 -0.85696 -2.9142 1.0244 -7.412 -1.1153 1.4294 -4.0095 -2.335 -0.9257 -2.62 1.1229 2.6328 2.7771 0.09106 -0 0 -0 -0 0 -0 -0 0 -0 -0 0 -0 -0.9257 -2.62 1.1229 1.915 0.20292 -2.8177 -0 0 -0 -0 0 -0 -0 0 -0 -0 0 -0 
0 0.95684 0 -0 0 -0 -0.94513 -2.6032 1.1778 0.6829 4.0299 -1.3934 0.6829 4.0299 -1.3934 0.56688 3.3863 -1.1669 -0 0 -0 -0.46601 -6.6903 -2.3531 3.9339 -3.1756 1.4894 -2.3291 1.196 5.1703 -0 0 -0 0.11289 -8.3195 -1.7865 0.22363 -0.73488 -4.8063 1.5549 -0.88173 -2.8605 1.0283 -7.2462 -1.1058 1.4416 -3.8798 -2.334 -0.94513 -2.6032 1.1778 2.6348 2.7723 0.067395 -0 0 -0 -0 0 -0 -0 0 -0 -0 0 -0 -0.94513 -2.6032 1.1778 1.9347 0.18312 -2.8532 -0 0 -0 -0 0 -0 -0 0 -0 -0 0 -0 
0 0.95684 0 -0 0 -0 -0.98517 -2.5631 1.2834 0.70295 3.9408 -1.4501 0.70295 3.9408 -1.4501 0.5836 3.3115 -1.2145 -0 0 -0 -0.47674 -6.5315 -2.301 3.9107 -3.1382 1.6317 -2.2988 1.2122 5.0669 -0 0 -0 0.073952 -8.1833 -1.7994 0.26285 -0.69958 -4.8074 1.5288 -0.88012 -2.798 1.0194 -7.0182 -1.0356 1.4486 -3.7271 -2.3095 -0.98517 -2.5631 1.2834 2.668 2.7562 -0.0352 -0 0 -0 -0 0 -0 -0 0 -0 -0 0 -0 -0.98517 -2.5631 1.2834 1.9711 0.13724 -2.9405 -0 0 -0 -0 0 -0 -0 0 -0 -0 0 -0 
0 0.95684 0 -0 0 -0 -1.005 -2.5504 1.352 0.69224 3.8108 -1.525 0.69224 3.8108 -1.525 0.57451 3.2023 -1.2776 -0 0 -0 -0.43827 -6.2349 -2.1625 3.8922 -3.1017 1.7771 -2.2719 1.2397 4.9479 -0 0 -0 0.094504 -7.9275 -1.7442 0.30404 -0.66044 -4.8043 1.5145 -0.85229 -2.7359 1.0599 -6.6966 -0.91371 1.4796 -3.5167 -2.2508 -1.005 -2.5504 1.352 2.6817 2.7684 -0.086343 -0 0 -0 -0 0 -0 -0 0 -0 -0 0 -0 -1.005 -2.5504 1.352 1.9749 0.10095 -2.987 -0 0 -0 -0 0 -0 -0 0 -0 -0 0 -0 
0 0.95684 0 -0 0 -0 -1.0227 -2.5599 1.4349 0.69992 3.7503 -1.5863 0.69992 3.7503 -1.5863 0.5808 3.1516 -1.3291 -0 0 -0 -0.46089 -6.1097 -2.1059 3.8993 -3.0702 1.8603 -2.2606 1.241 4.8994 -0 0 -0 0.057113 -7.8531 -1.7731 0.31875 -0.62316 -4.8112 1.7192 -0.67803 -2.6268 1.0647 -6.5139 -0.83156 1.4891 -3.3857 -2.2193 -1.0227 -2.5599 1.4349 2.7171 2.7714 -0.14749 -0 0 -0 -0 0 -0 -0 0 -0 -0 0 -0 -1.0227 -2.5599 1.4349 1.9591 0.038691 -3.0276 -0 0 -0 -0 0 -0 -0 0 -0 -0 0 -0 
0 0.95684 0 -0 0 -0 -1.046 -2.53 1.5447 0.71716 3.6686 -1.651 0.71716 3.6686 -1.651 0.59516 3.0831 -1.3834 -0 0 -0 -0.47886 -5.993 -2.0543 3.889 -3.046 1.8386 -2.2701 1.2323 4.9374 -0 0 -0 -0.02121 -7.7466 -1.8364 0.35723 -0.60577 -4.7726 2.0966 -0.37831 -2.4636 1.0522 -6.3284 -0.7631 1.4896 -3.2692 -2.2032 -1.046 -2.53 1.5447 2.7832 2.6771 -0.23789 -0 0 -0 -0 0 -0 -0 0 -0 -0 0 -0 -1.046 -2.53 1.5447 1.9083 -0.1742 -3.0131 -0 0 -0 -0 0 -0 -0 0 -0 -0 0 -0 
0 0.95684 0 -0 0 -0 -1.0671 -2.3295 1.6355 0.73078 3.5051 -1.724 0.73078 3.5051 -1.724 0.60663 2.9458 -1.4448 -0 0 -0 -0.35289 -5.87 -1.8422 3.7928 -3.0721 1.5504 -2.3906 1.2676 5.0552 -0 0 -0 -0.29547 -7.4807 -1.8804 0.59139 -0.66742 -4.678 2.0081 -0.57543 -1.9557 1.0674 -6.0461 -0.69553 1.5169 -3.1257 -2.1953 -1.0671 -2.3295 1.6355 2.838 2.36 -0.41474 -0 0 -0 -0 0 -0 -0 0 -0 -0 0 -0 -1.0671 -2.3295 1.6355 1.807 -0.72317 -2.8543 -0 0 -0 -0 0 -0 -0 0 -0 -0 0 -0 
0 0.95684 0 -0 0 -0 -1.0704 -1.9305 1.6734 0.72618 3.3511 -1.7955 0.72618 3.3511 -1.7955 0.60281 2.8165 -1.505 -0 0 -0 0.084316 -5.9575 -1.7334 3.3866 -3.3372 0.84459 -2.6001 1.4778 4.9953 -0 0 -0 -0.95714 -7.1762 -2.0633 1.1077 -0.94496 -4.2625 1.9647 -1.4322 -1.0355 1.1485 -5.8887 -0.69734 1.5919 -3.1008 -2.259 -1.0704 -1.9305 1.6734 2.8907 1.7455 -0.65749 -0 0 -0 -0 0 -0 -0 0 -0 -0 0 -0 -1.0704 -1.9305 1.6734 1.6765 -1.8151 -2.3944 -0 0 -0 -0 0 -0 -0 0 -0 -0 0 -0 
0 0.95684 0 -0 0 -0 -1.0693 -1.5838 1.7073 0.61481 3.3338 -1.9877 0.61481 3.3338 -1.9877 0.50856 2.8019 -1.6669 -0 0 -0 1.533 -6.3043 -1.2868 1.8401 -4.4529 -0.54483 -2.3825 2.107 3.2792 -0 0 -0 -1.7149 -6.8473 -2.1458 1.8356 -1.7566 -3.4894 2.1468 -3.2067 -0.00062542 1.4818 -5.9754 -0.64086 1.8101 -3.2149 -2.3804 -1.0693 -1.5838 1.7073 3.0089 0.98475 -0.97412 -0 0 -0 -0 0 -0 -0 0 -0 -0 0 -0 -1.0693 -1.5838 1.7073 1.5776 -3.4727 -1.6194 -0 0 -0 -0 0 -0 -0 0 -0 -0 0 -0 
0 0.95684 0 -0 0 -0 -1.0866 -1.3277 1.5786 0.37386 3.5355 -2.3458 0.37386 3.5355 -2.3458 0.30423 2.9709 -1.9685 -0 0 -0 4.0514 -6.9905 -0.29798 -0.42441 -6.7711 -3.5197 -2.9684 2.7382 1.752 -0 0 -0 -2.3758 -6.7644 -2.0754 2.6292 -3.1414 -2.3011 2.4487 -5.713 0.37102 2.1188 -6.3087 -0.40459 2.1959 -3.4085 -2.4826 -1.0866 -1.3277 1.5786 3.1839 0.07387 -1.027 -0 0 -0 -0 0 -0 -0 0 -0 -0 0 -0 -1.0866 -1.3277 1.5786 1.5665 -5.6682 -0.58597 -0 0 -0 -0 0 -0 -0 0 -0 -0 0 -0 
